<svg width="73" height="64" viewBox="0 0 73 64" fill="none" xmlns="http://www.w3.org/2000/svg">
<path d="M60.9695 20.8381C60.8867 20.8155 60.8711 20.8123 60.7893 20.7892C60.7893 20.7892 60.785 20.7865 60.7829 20.7865C59.4372 20.3006 58.0254 20.023 56.596 19.9631C56.931 20.3223 57.2352 20.7091 57.5054 21.1194C57.9272 21.7943 58.2004 22.5513 58.3068 23.34C58.3068 23.34 54.4722 19.8749 49.5372 19.571C46.9723 19.415 39.3456 19.3424 33.3602 25.8661C28.0531 31.6519 24.6229 38.295 23.7989 39.6589C23.7952 39.6692 23.7909 39.6761 23.7871 39.6858C23.7871 39.6858 30.7938 34.333 34.1422 33.9775C34.1422 33.9775 29.083 38.0121 25.9981 47.5385C25.9981 47.5385 26.1288 47.3529 26.3788 47.0447C27.3765 45.6808 29.2868 43.2327 30.8728 42.1001C33.13 40.4888 37.2422 38.6064 41.5807 38.9108C45.9198 39.2152 50.9979 40.6453 55.53 40.8964C60.0622 41.1481 59.1931 40.9045 59.875 40.8749L60.0219 39.9913C60.0219 39.9913 39.8479 40.6507 39.913 31.112C39.8887 29.9506 40.142 28.8003 40.6518 27.7566C41.1616 26.7128 41.9132 25.8059 42.8441 25.111C46.2893 22.5457 49.0677 22.8334 51.5147 23.4067C51.5147 23.4067 50.7973 21.9379 47.3531 22.3956C47.778 22.1896 48.2254 22.0347 48.6869 21.9336C52.0471 20.9586 54.4727 23.2943 54.4727 23.2943C55.8462 24.4716 57.3201 25.5265 58.8774 26.447C61.0964 27.7904 63.0928 26.7094 63.8705 26.1619C64.0802 25.6784 64.1518 25.1455 64.0759 24.6238C63.743 22.2805 61.019 20.8666 61.019 20.8666C61.019 20.8666 61.0819 20.872 60.9695 20.8381ZM52.2461 17.8511C53.4078 18.1555 53.8617 17.3149 53.8617 17.3149C53.6574 17.2611 53.4611 17.1804 53.2777 17.0745C53.1798 17.6177 52.2461 17.8511 52.2461 17.8511ZM67.5561 22.0896C67.1412 22.2388 66.7668 22.4828 66.4627 22.8022C65.8518 23.4405 65.3592 24.1824 65.008 24.9933C64.9909 25.3213 64.949 25.6476 64.8826 25.9694C65.2086 26.1211 66.3729 26.6277 67.2469 26.5018C68.0514 26.3873 68.5801 26.0608 68.8119 25.6273C69.1438 23.9714 67.5561 22.0896 67.5561 22.0896Z" fill="white"/>
<path d="M56.6208 27.7566C56.6208 27.7566 56.7413 30.408 55.599 32.2285C55.599 32.2285 57.9648 30.4994 58.1391 29.0839C58.1391 29.0839 57.0177 28.3976 56.6203 27.7566H56.6208ZM64.5106 31.446C64.5106 31.446 66.5575 29.8852 67.0383 28.6025C66.6018 28.5389 66.1719 28.4367 65.7535 28.2971C65.7535 28.2971 65.249 30.394 64.5106 31.446ZM60.2662 36.6144C59.6584 37.7174 57.8573 38.7076 57.2081 39.0394C57.8643 39.0625 58.5796 39.0797 59.3615 39.0862C59.8396 38.3378 60.1484 37.4946 60.2662 36.6144ZM55.5323 36.2395C54.6261 37.2358 53.5378 38.0497 52.3258 38.6371C52.869 38.7188 53.6752 38.8194 54.7724 38.9033C55.231 38.0872 55.4913 37.1747 55.5323 36.2395ZM55.3731 12.8107C50.973 10.4195 46.0487 9.15636 41.0409 9.13417C36.706 9.10097 32.399 9.83023 28.3167 11.2887C29.068 11.5334 29.8882 11.7781 30.6885 11.9986C32.73 11.2456 37.3074 10.0033 40.7859 9.9409C48.986 9.79246 55.7103 13.0048 55.3731 12.8107ZM21.2003 17.1896C20.9441 17.0786 20.6932 16.9557 20.4485 16.8212C20.1233 16.6339 19.7869 16.4668 19.4411 16.321C17.1958 17.6892 13.3789 19.9039 8.33203 22.4284C8.68161 22.7119 9.02796 22.9985 9.37217 23.2873C9.41519 23.3255 9.45822 23.3615 9.50393 23.4008C9.62225 23.4992 9.74326 23.6019 9.86911 23.7117L9.8761 23.7149C13.146 21.8987 18.2934 19.016 21.2003 17.1896ZM66.4301 21.2823C66.1094 20.6213 65.6847 20.0161 65.1721 19.4898C64.4729 18.8686 62.4577 18.462 62.4577 18.462C63.9756 19.0942 65.3328 20.0578 66.4301 21.2823ZM46.3185 14.0278C47.0859 14.1256 48.5977 14.4542 48.8725 15.5229C49.2442 16.9707 49.8277 18.5545 51.6396 19.2144C51.7891 19.2677 51.9413 19.3112 52.0967 19.3435C52.4163 19.423 52.7486 19.4378 53.074 19.387C53.3994 19.3362 53.7113 19.2209 53.9915 19.0477C54.0442 19.016 54.0969 18.9778 54.1447 18.9423C54.1539 18.9342 54.1657 18.9278 54.1743 18.9192C54.219 18.8842 54.262 18.8525 54.3023 18.8165C54.3159 18.8026 54.3303 18.7894 54.3453 18.7772C54.3808 18.7422 54.4153 18.711 54.4508 18.6766C54.4977 18.6283 54.5431 18.5784 54.5868 18.5271C54.6067 18.5051 54.6218 18.4819 54.6422 18.4594C54.6643 18.4292 54.6869 18.4002 54.7094 18.3717C54.7315 18.3426 54.7492 18.3147 54.7681 18.2856C54.7864 18.2577 54.803 18.2345 54.8175 18.2109C54.8391 18.1759 54.8606 18.1394 54.8805 18.1033C54.8912 18.0834 54.902 18.0657 54.9122 18.0452C54.9402 17.9915 54.9676 17.9366 54.9907 17.8839C54.9852 17.881 54.9795 17.8786 54.9735 17.8769C54.8159 17.8296 54.6616 17.7801 54.5067 17.7252C54.426 17.8898 54.3131 18.0361 54.1749 18.1555C53.8403 18.4545 53.2089 18.7476 52.1086 18.4212C50.2241 17.8635 49.839 15.8423 49.6949 15.5471C49.6868 15.5299 49.6755 15.5057 49.6637 15.4734C49.6567 15.4573 49.6491 15.4384 49.6395 15.4207L49.6276 15.3954C49.6158 15.3707 49.6029 15.3416 49.5884 15.3126C49.5857 15.3056 49.5819 15.2997 49.5782 15.2911C49.5607 15.2589 49.5428 15.227 49.5244 15.1954C49.5201 15.1878 49.5158 15.1824 49.5125 15.176C49.4858 15.1328 49.4575 15.0906 49.4276 15.0496C49.398 15.012 49.3673 14.9716 49.3324 14.9313C49.2899 14.8828 49.2443 14.8372 49.1958 14.7947C49.1958 14.792 49.1936 14.792 49.1904 14.7893C49.0171 14.6314 48.8202 14.5014 48.6069 14.4042C48.6069 14.4021 48.6036 14.4021 48.6036 14.401C48.5172 14.3611 48.4293 14.3245 48.3401 14.2913C48.3346 14.2911 48.3292 14.2902 48.324 14.2886C48.219 14.2504 48.1122 14.2176 48.004 14.1902C47.8904 14.1596 47.7756 14.1341 47.6598 14.1138C47.6512 14.1138 47.6442 14.1111 47.6356 14.1111C47.4974 14.0852 47.3581 14.0655 47.2182 14.052C47.0676 14.0374 46.917 14.0267 46.7665 14.0197H46.753C46.5799 14.0147 46.4067 14.0132 46.2335 14.0154C46.2604 14.0202 46.2894 14.024 46.3185 14.0278ZM24.0615 12.7209C27.3922 14.3881 34.2951 13.0796 34.2951 13.0796L34.2628 13.0624L34.2165 13.0393C32.4202 12.993 27.2712 12.801 25.6104 12.1153C23.4952 11.2467 22.5357 10.0732 19.5406 8.91528C19.5971 9.63703 19.7343 10.3502 19.9494 11.0423H19.951C20.868 11.2645 21.124 11.2542 24.0615 12.7209Z" fill="white"/>
<path d="M12.3432 30.4962C15.0431 33.7317 18.0107 38.2386 18.9906 39.7477C18.7884 40.8261 18.3608 43.2274 17.9139 46.6646L17.2718 51.6033L20.6379 47.9311C21.4915 47.0061 22.3618 46.0967 23.2485 45.2033C21.9793 48.8334 21.1399 52.5998 20.7477 56.4254L20.9854 63.6993L23.8191 57.0546C25.6797 52.2242 29.3016 48.2783 33.9553 46.0117C40.3876 42.9165 45.7227 43.6856 50.0091 44.3025L51.5107 44.5122C57.3255 45.2663 61.0811 44.4993 61.2381 44.4654L62.2842 44.2428L63.4297 37.5782C63.4297 37.5782 62.936 37.5653 62.4461 37.5513C62.5429 37.092 62.5945 36.6252 62.6004 36.1562C62.6004 35.9029 62.5805 35.6496 62.5413 35.3984C62.7661 35.2742 63.3781 34.9327 63.3781 34.9327C65.6609 33.6572 67.6259 31.8823 69.1263 29.7406C69.3414 29.6056 69.549 29.4588 69.7491 29.3012C70.3721 28.7835 70.8807 28.142 71.2427 27.4174C71.6047 26.6927 71.8122 25.9008 71.8519 25.0917C71.9466 23.4889 71.4169 21.9116 70.374 20.6908C70.1185 19.6437 69.2607 17.4833 66.4377 16.1446C66.3996 16.0226 66.3619 15.8972 66.3076 15.7617L66.3044 15.7483C65.9585 14.8394 65.2411 12.9393 63.0909 11.9965L62.3702 11.6802L61.6926 12.0621C61.4705 12.1664 61.2242 12.2073 60.9805 12.1804C60.631 12.0083 60.2954 11.8082 59.9775 11.5834C58.2258 10.013 55.3415 7.46484 51.4063 6.35425C49.5581 5.82934 47.6691 5.45983 45.7593 5.24958C42.961 4.07284 42.2312 3.36292 42.2232 3.35593C42.0779 3.17899 38.8995 0.286621 38.8995 0.286621C38.8845 1.35932 38.9824 2.43062 39.1915 3.48286C39.2818 4.02605 39.412 4.56171 39.5809 5.08555C35.6961 5.32746 31.8512 6.00911 28.12 7.11741C27.1891 7.38632 27.4644 7.2922 25.6821 8.1285C22.4875 5.95143 20.4922 5.41845 20.4519 5.37059L13.9158 3.04723C13.9158 3.04723 15.6207 4.90484 15.8035 7.25724C15.9848 9.60965 16.1881 11.7964 16.5296 12.4848C12.8117 14.4349 9.76494 16.2275 5.19459 18.7213L0.277344 21.4007L2.66094 22.8141C2.7244 22.8533 9.18356 26.7057 12.3432 30.4962ZM19.0885 13.0258C18.3396 11.7925 17.8458 10.4215 17.6364 8.99385C17.4728 7.91031 17.1935 6.84744 16.8033 5.82343C20.0765 6.60487 23.1893 8.68353 25.282 9.94255C26.3426 9.4321 27.4363 8.99334 28.5557 8.62921C33.5901 7.17227 37.8437 6.62155 41.4578 6.59842C41.1028 5.92077 40.9568 5.15298 41.0384 4.3923C41.0384 4.3923 41.7009 5.27808 45.3376 6.78181C47.2448 6.98074 49.1312 7.34349 50.9761 7.86605C54.4697 8.8524 57.0179 11.0418 59.0121 12.8322C59.4634 13.1598 59.9458 13.4416 60.4529 13.6745C61.1273 13.8484 61.8423 13.7632 62.4568 13.4357C64.0165 14.1176 64.521 15.4874 64.8383 16.3291C64.9631 16.634 65.047 16.9541 65.0884 17.281C68.6917 18.6105 68.9133 21.4082 68.9133 21.4082C70.9909 23.5525 70.5224 26.6455 68.759 28.0712C68.5159 28.2562 68.2615 28.4262 67.9979 28.5805C66.6283 30.6478 64.7801 32.354 62.6101 33.5543C63.1756 32.5798 63.6435 31.5519 64.0068 30.4855C64.664 28.6064 64.6995 27.9325 64.6995 27.9325C64.3537 27.7195 64.3058 27.6894 64.3015 27.6878H64.2972C64.2886 27.6813 62.5977 29.6669 59.3063 29.3991C58.0177 31.9521 53.6324 34.4051 53.6324 34.4051C53.6786 34.3255 55.1802 32.0968 55.5534 29.7406C55.6771 28.0067 55.3975 26.617 54.8656 26.0867C54.3337 25.5564 53.5969 24.7927 51.8726 25.1041C50.1484 25.4155 49.517 27.0757 49.517 27.0757C50.1721 27.7749 50.5238 28.8086 50.0016 30.3408C49.4971 31.822 48.5963 32.6389 47.7858 33.5828C46.9764 34.5266 47.3405 35.7254 48.066 36.5106C48.792 37.2953 50.5098 37.8519 51.3682 37.9643C53.0709 37.2544 55.4609 35.6894 56.3897 34.0125C56.3897 34.0125 56.6452 36.6354 55.9251 38.6291C56.82 38.2809 57.6837 37.857 58.5066 37.362C59.5526 36.6854 60.866 35.1236 60.866 35.1236C60.866 35.1236 61.4608 36.5074 60.2943 39.0674L61.5651 39.1024L60.909 42.9225C60.909 42.9225 57.3239 43.6765 51.7081 42.9472C47.1404 42.3518 40.9319 40.9035 33.2701 44.5902C28.2107 47.0275 24.2863 51.3225 22.3143 56.5808C22.9118 50.6152 24.6469 44.8194 27.4257 39.5068L27.5279 39.3234C24.9916 40.847 19.4757 46.8646 19.4757 46.8646C20.0824 42.2018 20.6562 39.4267 20.6562 39.4267C20.6562 39.4267 16.9308 33.5392 13.5533 29.4884C10.1764 25.4359 3.4639 21.4588 3.4639 21.4588C9.14054 18.3653 14.6096 15.3643 19.0885 13.0258Z" fill="#C2C4C6"/>
<path d="M19.4431 16.321C18.1631 15.7886 17.8082 16.1543 16.9638 16.2678C13.916 18.0355 10.5778 19.9593 7.41113 21.6954C7.41113 21.6954 8.26249 22.372 8.33241 22.43C13.3793 19.9039 17.1961 17.6892 19.4431 16.321ZM55.1702 17.935C56.0361 18.7041 56.973 18.9106 58.5923 19.5678C59.498 19.927 60.3671 20.3713 61.1889 20.8946C61.1889 20.9 61.1905 20.9032 61.1905 20.9075C61.1383 20.8913 61.3185 20.9505 61.2679 20.9381C61.3798 20.9683 61.2658 20.9338 61.3868 20.9822C61.397 20.9855 61.4078 20.9903 61.418 20.993C61.7267 21.0882 65.1262 22.0982 67.0269 21.4534C67.0269 21.4534 66.7316 18.4604 62.6189 18.0786C62.6173 18.0786 58.624 18.9004 55.1702 17.935ZM66.4315 21.2823C65.3343 20.0578 63.977 19.0942 62.4592 18.462C62.4592 18.462 64.476 18.8686 65.1736 19.4898C65.6858 20.0162 66.1101 20.6214 66.4304 21.2823H66.4315Z" fill="#C2C4C6"/>
<path d="M14.568 28.1375C17.4636 31.2477 21.3784 36.7027 21.7425 37.211C21.7459 37.2032 21.7498 37.1956 21.7543 37.1884C21.7769 37.1453 21.8011 37.1023 21.8242 37.0577C21.8258 37.055 21.8271 37.0521 21.828 37.0491C23.8921 29.8477 35.0206 19.0489 41.4346 16.981C41.4312 16.9835 41.4276 16.9857 41.4238 16.9875C41.3953 17.0047 41.3012 17.0547 41.1539 17.1435C41.1275 17.158 41.1011 17.173 41.071 17.1913C41.0253 17.2177 40.9753 17.2478 40.9204 17.2806C38.3916 18.8005 27.2169 26.1836 23.7889 39.6763C23.7926 39.672 23.7964 39.6634 23.7991 39.6602C24.623 38.2968 28.0532 31.6521 33.3614 25.8652C39.3468 19.3431 46.9735 19.4152 49.5384 19.5712C54.4712 19.875 58.3064 23.3402 58.3064 23.3402C58.2 22.5515 57.9268 21.7945 57.505 21.1195C57.2348 20.7093 56.9306 20.3225 56.5956 19.9632C55.0774 19.909 53.5686 19.7009 52.0925 19.3421H52.0979C51.9428 19.3093 51.79 19.2661 51.6407 19.213C49.8288 18.5525 49.2453 16.9692 48.8736 15.5214C48.5972 14.4522 47.086 14.1226 46.3196 14.0263C46.0883 14.0209 45.857 14.0268 45.6269 14.044C45.6828 14.0053 45.7409 13.9698 45.8016 13.9392C45.7667 13.9413 45.7495 13.9413 45.7495 13.9413C45.9071 13.8316 46.0749 13.7364 46.2496 13.6573C46.2244 13.6681 46.2002 13.6762 46.1765 13.688C49.0484 11.9627 52.5733 14.8373 52.5733 14.8373C58.2505 17.6092 62.212 16.4045 63.3549 15.9393C63.3495 15.9447 63.3683 15.9662 63.328 15.8839C63.0598 15.341 62.6137 14.9064 62.0641 14.6523C61.5779 14.975 59.1292 16.1469 52.7335 12.8157C52.7335 12.8157 56.957 14.3613 58.9609 14.1602C58.6237 13.9841 58.2948 13.7926 57.9751 13.5864C56.1804 12.4322 53.1331 8.76323 46.2851 8.12538C40.6289 7.60101 34.7517 7.70588 27.6929 10.2901C27.3729 10.4159 27.0599 10.5579 26.7549 10.716C27.2062 10.9043 27.7386 11.0963 28.3151 11.2861C32.3975 9.82787 36.7044 9.09879 41.0393 9.13217C46.0479 9.15475 50.9727 10.4187 55.3731 12.8108C55.7104 13.0055 48.9861 9.79368 40.7849 9.94158C37.3058 10.0034 32.7284 11.2469 30.6869 11.9993C32.0632 12.3803 33.4473 12.7325 34.8383 13.0555C34.8178 13.0555 34.6092 13.0609 34.2612 13.0631L34.2935 13.0803C34.2935 13.0803 27.3922 14.3882 24.0615 12.7215C21.1229 11.2549 20.868 11.2651 19.951 11.043C20.2452 12.0466 20.7154 12.9899 21.3397 13.8289C21.9418 14.6292 22.7207 15.2795 23.6157 15.729C23.0321 15.9153 22.4191 15.9919 21.8076 15.9549C21.8076 15.9549 26.5366 18.787 33.7132 17.0859C33.7132 17.0859 26.3069 19.81 20.9175 18.9043C21.6953 18.6626 22.4267 18.2915 23.0811 17.8066C22.4374 17.6557 21.808 17.4495 21.1998 17.1903C18.2935 19.0167 13.1455 21.8994 9.87613 23.7156L9.86914 23.7123C11.5157 25.1001 13.0844 26.5778 14.568 28.1386V28.1375Z" fill="#C2C4C6"/>
<path d="M48.7475 27.5356C48.447 27.2824 48.0719 27.1345 47.6794 27.1143C47.2869 27.0941 46.8986 27.2028 46.5737 27.4237C47.5821 29.1431 44.865 31.879 44.865 31.879C46.8238 25.9577 43.8179 26.3019 43.8179 26.3019C41.5876 27.8395 40.3232 33.5903 44.2127 35.9196C48.4625 38.4608 49.544 38.1155 49.544 38.1155C48.0984 37.7982 46.4656 36.7279 46.095 35.7136C45.963 35.2591 45.9553 34.7775 46.0729 34.3191C46.1905 33.8607 46.429 33.4422 46.7635 33.1074C47.1583 32.676 48.3033 31.8263 48.9078 30.4845C49.1939 29.8547 49.6822 28.2767 48.7475 27.5356ZM30.8743 42.1013C29.2883 43.2344 27.378 45.6842 26.3809 47.0465C26.2754 47.1836 26.0915 47.4068 26.0098 47.5197L26.1738 47.3525C27.0483 46.4124 31.2411 42.211 37.419 40.5287C41.3095 39.4654 47.0448 40.7314 51.5608 41.3569C57.4634 42.1744 59.7636 41.5575 59.7636 41.5575L59.8765 40.8767C59.1951 40.9062 60.0621 41.1509 55.531 40.8982C51.001 40.6454 45.9256 39.2137 41.5827 38.9126C37.2399 38.6114 33.1304 40.49 30.8743 42.1013ZM64.8836 25.9695C64.8697 26.0363 64.8532 26.1025 64.8341 26.1679V26.1701C64.8032 26.2892 64.7621 26.4054 64.7115 26.5175L64.6964 26.5487C64.673 26.5957 64.647 26.6413 64.6184 26.6853C64.6184 26.6853 66.6982 27.9094 67.9292 26.9774C67.9992 26.9268 68.0594 26.8725 68.1196 26.8214C68.1492 26.7934 68.1756 26.7676 68.203 26.7386C68.2304 26.7095 68.2584 26.6853 68.2837 26.659C68.3318 26.6032 68.3791 26.5467 68.4256 26.4896C68.4525 26.4514 68.4767 26.4164 68.502 26.3788C68.5149 26.3583 68.53 26.3374 68.5413 26.3164C68.566 26.2766 68.5897 26.2357 68.6112 26.1954C68.6198 26.1776 68.6289 26.1604 68.637 26.1416C68.6601 26.0986 68.68 26.0529 68.6978 26.0066C68.7032 25.9948 68.7096 25.9813 68.715 25.9679C68.7322 25.9173 68.7499 25.8684 68.7639 25.8184C68.7677 25.8098 68.7688 25.8012 68.7709 25.7926C68.7871 25.7388 68.8016 25.6828 68.8123 25.6296V25.6269C68.5805 26.0604 68.0529 26.3868 67.2473 26.5014C66.3739 26.6278 65.2106 26.1212 64.8836 25.9695ZM58.8789 26.4471C57.3216 25.5269 55.8477 24.4724 54.4742 23.2955C54.4742 23.2955 52.0481 20.9597 48.6873 21.9348C48.5921 21.9614 48.4977 21.991 48.4044 22.0235C49.8387 21.6664 52.4848 21.5503 54.7899 24.433C54.7899 24.433 58.9821 30.2553 62.4623 27.8255C62.5296 27.7787 62.5979 27.7276 62.6646 27.6749C62.6823 27.6609 62.6995 27.6464 62.7173 27.6335C62.7673 27.5915 62.8178 27.5512 62.8652 27.5087C62.8818 27.4926 62.9001 27.4786 62.9163 27.463C62.9674 27.4168 63.0184 27.3678 63.0679 27.3178L63.1029 27.2855C63.36 27.027 63.5781 26.7324 63.7504 26.411H63.7536C63.7972 26.3298 63.8369 26.2465 63.8725 26.1615C63.0948 26.7095 61.0979 27.7911 58.8789 26.4471Z" fill="#C2C4C6"/>
<path d="M13.5533 29.4874C16.9308 33.5388 20.6551 39.4289 20.6551 39.4289C20.6551 39.4289 20.0818 42.2041 19.4752 46.8669C19.4752 46.8669 24.991 40.8488 27.5273 39.3251L27.4251 39.5085C24.6463 44.8211 22.9113 50.617 22.3137 56.5826C24.2854 51.3236 28.2098 47.028 33.2696 44.5904C40.9313 40.9031 47.1398 42.352 51.7113 42.9441C57.3255 43.6734 60.9122 42.9194 60.9122 42.9194L61.5683 39.0993L60.2975 39.0643C61.4635 36.5043 60.8692 35.1205 60.8692 35.1205C60.8692 35.1205 59.5553 36.6834 58.5098 37.3589C57.6869 37.8539 56.8232 38.2778 55.9283 38.626C56.6484 36.6328 56.3929 34.0094 56.3929 34.0094C55.4636 35.6884 53.0735 37.2524 51.3708 37.9618C50.513 37.8488 48.7936 37.297 48.0686 36.5075C47.3442 35.7175 46.9801 34.5235 47.789 33.5797C48.5978 32.6358 49.4998 31.8189 50.0048 30.3377C50.527 28.8055 50.1753 27.7718 49.5202 27.0732C49.5202 27.0732 50.1527 25.4076 51.8758 25.101C53.5985 24.7945 54.339 25.5522 54.8682 26.0836C55.398 26.6155 55.6803 28.0036 55.5566 29.7375C55.1834 32.0931 53.6813 34.3224 53.6356 34.402C53.6356 34.402 58.0204 31.9506 59.3095 29.396C62.6004 29.6638 64.2918 27.6782 64.3004 27.6847C64.3004 27.6847 64.3074 27.6874 64.3042 27.6847L64.7022 27.9294C64.7022 27.9294 64.6678 28.6016 64.0095 30.4824C63.6463 31.5488 63.1787 32.5767 62.6133 33.5512C64.7831 32.3508 66.6311 30.6446 68.0006 28.5774C68.2647 28.4236 68.5185 28.2531 68.7616 28.0681C70.524 26.6429 70.9935 23.5494 68.916 21.4051C68.916 21.4051 68.6944 18.6074 65.0916 17.2785C65.0499 16.9513 64.9658 16.631 64.8415 16.3255C64.5231 15.4843 64.0186 14.1145 62.4595 13.4326C61.8449 13.7601 61.1299 13.8453 60.4556 13.6714C59.9489 13.4385 59.4665 13.1562 59.0153 12.8286C57.0216 11.0398 54.4729 8.85039 50.9798 7.86242C49.1349 7.34004 47.2485 6.97747 45.3414 6.77872C41.7031 5.27445 41.0421 4.38867 41.0421 4.38867C40.9604 5.14953 41.1064 5.91752 41.4616 6.59533C37.8475 6.61845 33.5939 7.16918 28.5594 8.62612C27.4401 8.99007 26.3464 9.42866 25.2857 9.93892C23.1931 8.68044 20.0802 6.60178 16.8071 5.8198C17.1974 6.84396 17.4769 7.90702 17.6407 8.99076C17.8501 10.4184 18.3439 11.7894 19.0928 13.0228C14.609 15.3644 9.13997 18.3654 3.46387 21.4589C3.46387 21.4589 10.1774 25.4345 13.5533 29.4874ZM60.2668 36.614C60.149 37.4942 59.8403 38.338 59.3622 39.0864C58.6442 39.0806 57.9264 39.065 57.2088 39.0396C57.8579 38.7077 59.6596 37.7176 60.2668 36.614ZM55.533 36.2397C55.4919 37.1749 55.2316 38.0874 54.773 38.9035C53.9546 38.8442 53.1386 38.7554 52.3265 38.6373C53.5384 38.0498 54.6268 37.236 55.533 36.2397ZM48.9082 30.4851C48.3026 31.8264 47.1587 32.6761 46.7639 33.1085C46.4293 33.4433 46.1907 33.8617 46.073 34.3202C45.9553 34.7786 45.9629 35.2603 46.0949 35.7148C46.467 36.7286 48.0988 37.7994 49.5439 38.1161C49.5439 38.1161 48.4629 38.4614 44.213 35.9208C40.3236 33.5915 41.589 27.8401 43.8183 26.303C43.8183 26.303 46.8247 25.9588 44.8649 31.8802C44.8649 31.8802 47.5825 29.1438 46.5735 27.4244C46.8985 27.2034 47.2868 27.0947 47.6792 27.1149C48.0717 27.1351 48.4468 27.2831 48.7474 27.5362C49.6815 28.2768 49.1937 29.8537 48.9082 30.4851ZM55.6002 32.2287C56.7425 30.4103 56.6215 27.7567 56.6215 27.7567C57.019 28.3984 58.1403 29.0857 58.1403 29.0857C57.9655 30.5001 55.6002 32.2287 55.6002 32.2287ZM64.5113 31.4456C65.2518 30.3936 65.7541 28.2983 65.7541 28.2983C66.1726 28.4382 66.6023 28.5403 67.0385 28.6038C66.5566 29.8854 64.5113 31.4456 64.5113 31.4456ZM68.8138 25.6275V25.6302C68.8027 25.6851 68.7891 25.7395 68.7729 25.7932C68.7708 25.8018 68.7697 25.8098 68.7659 25.819C68.7525 25.869 68.7336 25.918 68.717 25.9685C68.7116 25.982 68.7051 25.9954 68.6998 26.0067C68.682 26.0535 68.6621 26.0981 68.639 26.1428C68.6309 26.161 68.6218 26.1777 68.6132 26.1955C68.5917 26.2358 68.568 26.2767 68.5433 26.317C68.532 26.3374 68.5169 26.359 68.504 26.3789C68.4787 26.4165 68.4545 26.4515 68.4276 26.4896C68.4079 26.5123 68.3889 26.5356 68.3706 26.5596C68.3427 26.5924 68.3158 26.6257 68.2856 26.6596C68.2604 26.6865 68.2308 26.7118 68.205 26.7387C68.1792 26.7655 68.1512 26.7941 68.1216 26.8215C68.0602 26.8759 67.9967 26.928 67.9312 26.9774C66.7002 27.9084 64.6199 26.686 64.6199 26.686C64.6489 26.6418 64.6748 26.5961 64.6984 26.5493L64.7129 26.5182C64.764 26.4057 64.8049 26.2896 64.8361 26.1707V26.1686C64.8533 26.11 64.8689 26.0481 64.8823 25.9868C64.9507 25.6593 64.9937 25.3274 65.0114 24.9934C65.3625 24.1827 65.8549 23.4408 66.4657 22.8024C66.7698 22.4832 67.1442 22.2394 67.5591 22.0903C67.5591 22.0903 69.1445 23.9716 68.8138 25.6275ZM52.2469 17.8502C52.2469 17.8502 53.1806 17.6178 53.2785 17.0741C53.4613 17.1795 53.6581 17.2607 53.8625 17.3145C53.8625 17.3145 53.4086 18.1551 52.2469 17.8507V17.8502ZM61.0402 20.8673C61.8098 21.3116 63.7933 22.6281 64.0772 24.624C64.1537 25.1522 64.0795 25.6914 63.8632 26.1793C63.8282 26.2584 63.7933 26.3364 63.7524 26.4122C63.5795 26.7334 63.361 27.028 63.1038 27.2867C63.093 27.298 63.0812 27.3082 63.0688 27.3195C63.0193 27.3692 62.9686 27.4176 62.9166 27.4647C62.8994 27.4803 62.8817 27.4943 62.8655 27.5099C62.8182 27.5529 62.7677 27.5927 62.7182 27.6352C62.6994 27.6481 62.6832 27.6621 62.6655 27.6766C62.5996 27.7291 62.532 27.7793 62.4627 27.8272C58.9825 30.256 54.7902 24.4347 54.7902 24.4347C52.4857 21.5509 49.838 21.6676 48.4048 22.0247C48.5005 21.9919 48.593 21.9629 48.6882 21.9365C48.2268 22.0376 47.7793 22.1925 47.3544 22.399C50.7986 21.9424 51.516 23.4096 51.516 23.4096C49.0674 22.8363 46.2912 22.5485 42.8459 25.1139C41.9149 25.8087 41.1633 26.7156 40.6534 27.7594C40.1435 28.8031 39.8901 29.9535 39.9143 31.1149C39.8497 40.6535 60.0232 39.9942 60.0232 39.9942L59.8764 40.8778L59.7634 41.5587C59.7634 41.5587 57.4632 42.175 51.5607 41.3581C47.0446 40.7326 41.3105 39.4671 37.4188 40.5298C31.0403 42.2643 26.7776 46.6878 26.0984 47.4311C26.0604 47.4625 26.0271 47.4991 25.9994 47.5397C29.0843 38.015 34.1446 33.9782 34.1446 33.9782C30.7946 34.3342 23.7895 39.6871 23.7895 39.6871C23.7933 39.6769 23.7981 39.6699 23.8013 39.6602C23.7992 39.6629 23.7949 39.6715 23.7911 39.6758C27.2197 26.1831 38.3939 18.8 40.9232 17.279C40.9781 17.2462 41.0281 17.2156 41.0738 17.1892C41.1039 17.1709 41.1308 17.1559 41.1566 17.1408C41.3045 17.0526 41.3987 17.001 41.4272 16.9854C41.4309 16.9836 41.4345 16.9814 41.4379 16.9789C35.0218 19.0468 23.8944 29.8462 21.8303 37.047C21.8293 37.0501 21.8281 37.0532 21.8265 37.0561L21.7738 37.2508L21.756 37.1863C21.7516 37.1935 21.7476 37.201 21.7442 37.2088C21.3801 36.7022 17.4653 31.2472 14.5697 28.137C13.0856 26.5762 11.5164 25.0985 9.86924 23.7108C9.74936 23.6054 9.6278 23.5019 9.50461 23.4004C9.46158 23.3628 9.4164 23.3251 9.37284 23.2875C9.30917 23.2361 9.24641 23.1836 9.18461 23.1299C8.12887 22.249 7.41143 21.6961 7.41143 21.6961C10.5781 19.96 13.9163 18.0363 16.9641 16.2685C17.8085 16.1555 18.1634 15.7898 19.4434 16.3217C19.7892 16.4675 20.1256 16.6346 20.4508 16.8219C20.6955 16.959 20.952 17.0806 21.2021 17.1903C21.8098 17.4495 22.4391 17.6555 23.0823 17.8061C22.4278 18.2913 21.6961 18.6626 20.9181 18.9043C26.306 19.81 33.7144 17.0854 33.7144 17.0854C26.5377 18.7871 21.8082 15.9538 21.8082 15.9538C22.4198 15.9913 23.033 15.915 23.6169 15.729C22.7218 15.2792 21.9429 14.6285 21.3408 13.8279C20.7163 12.9889 20.246 12.0456 19.9517 11.042H19.9495C19.7346 10.3502 19.5975 9.63657 19.5408 8.91439C22.5364 10.0728 23.4943 11.2464 25.6106 12.1149C27.2713 12.8006 32.4198 12.9926 34.2167 13.0389L34.2629 13.062C34.6125 13.0599 34.8196 13.055 34.84 13.0545C34.8604 13.054 32.8458 12.6 30.6881 11.9982C29.8924 11.78 29.102 11.5433 28.3174 11.2883C27.7903 11.1177 27.2696 10.9275 26.7566 10.7182C27.0621 10.5601 27.3751 10.4181 27.6946 10.2923C34.7534 7.70699 40.6312 7.60212 46.2874 8.12756C53.1354 8.76487 56.1821 12.436 57.9773 13.5885C58.2968 13.7945 58.6259 13.9865 58.9626 14.1624C56.9576 14.3635 52.7358 12.8178 52.7358 12.8178C59.1315 16.1491 61.5802 14.9766 62.0663 14.6539C62.6009 14.902 63.0381 15.3201 63.3098 15.8431C63.3593 15.9404 63.3706 15.9479 63.3566 15.9409C63.3216 15.9533 63.2867 15.9684 63.2501 15.9818C61.9841 16.4728 58.0892 17.5318 52.575 14.839C52.575 14.839 49.0507 11.9649 46.1782 13.6902C46.2024 13.6778 46.2266 13.6703 46.2519 13.6595C46.0914 13.7338 45.9407 13.8277 45.8034 13.9392C45.7428 13.9702 45.6844 14.0053 45.6286 14.0441C46.004 14.015 46.3804 14.0064 46.7564 14.0193H46.7693C46.928 14.0274 47.0865 14.0392 47.2447 14.0548C47.3845 14.0688 47.5152 14.0876 47.6384 14.1113C47.6475 14.1113 47.6545 14.114 47.6631 14.114C47.7857 14.1355 47.8992 14.1613 48.0073 14.1898C48.1158 14.217 48.2228 14.2499 48.3279 14.2882C48.3329 14.29 48.3381 14.291 48.3435 14.2915C48.4365 14.3264 48.5252 14.3614 48.607 14.4012C48.607 14.4012 48.6086 14.4012 48.6102 14.4044C48.8237 14.5012 49.0211 14.6308 49.1937 14.7889C49.197 14.7922 49.198 14.7922 49.1991 14.7943C49.2438 14.8336 49.2852 14.8755 49.325 14.9202L49.3357 14.9309C49.3707 14.9718 49.4013 15.0121 49.4309 15.0492C49.4606 15.0904 49.489 15.1326 49.5159 15.1756C49.5191 15.1826 49.5229 15.188 49.5272 15.1955C49.546 15.2289 49.5659 15.2622 49.5815 15.2913C49.5853 15.2999 49.589 15.3052 49.5912 15.3128C49.6062 15.3418 49.6192 15.3709 49.631 15.3956C49.6348 15.4037 49.6391 15.4117 49.6423 15.4209C49.6514 15.4378 49.6594 15.4552 49.6665 15.473C49.6783 15.5053 49.6901 15.5301 49.6982 15.5473C49.8429 15.8425 50.2285 17.8636 52.1119 18.4213C53.2123 18.7478 53.8437 18.4542 54.1777 18.1557C54.3164 18.0363 54.4294 17.89 54.5095 17.7254C54.6644 17.7792 54.8188 17.8303 54.9763 17.8771C54.9825 17.8786 54.9884 17.8808 54.9941 17.8835C54.9696 17.9382 54.9432 17.992 54.915 18.0449C54.9043 18.0653 54.8935 18.0831 54.8833 18.103C54.8629 18.1391 54.8421 18.1749 54.8209 18.2105C54.8048 18.2342 54.7886 18.2605 54.7709 18.2858L54.7123 18.3719C54.6918 18.4004 54.6676 18.4294 54.645 18.4595C54.6262 18.4821 54.6101 18.5052 54.5896 18.5273C54.5616 18.5602 54.5329 18.5924 54.5036 18.6241C54.4875 18.6402 54.4713 18.6591 54.4536 18.6768C54.4186 18.7118 54.3837 18.743 54.3487 18.7768C54.3347 18.7881 54.3197 18.8032 54.3057 18.8161C54.2642 18.852 54.2213 18.8863 54.1771 18.9188C54.1685 18.928 54.1567 18.935 54.1476 18.9425C54.0981 18.9774 54.047 19.0151 53.9948 19.0474C53.7146 19.2207 53.4026 19.3362 53.0771 19.3871C52.7516 19.438 52.4193 19.4232 52.0996 19.3437H52.0942C53.5703 19.704 55.0794 19.9121 56.5978 19.9649C57.9967 20.0267 59.3794 20.2929 60.7019 20.7538C60.7041 20.7522 61.0402 20.8673 61.0402 20.8673ZM60.9509 20.7479C60.1975 20.2916 59.4084 19.8969 58.5915 19.5674C56.9727 18.9032 56.0358 18.7053 55.1694 17.9346C58.6243 18.9 62.6181 18.0782 62.6181 18.0782C66.7308 18.4601 67.0255 21.453 67.0255 21.453C65.1244 22.0978 61.7254 21.0873 61.4167 20.9926C61.414 20.9926 61.3053 20.9458 61.1978 20.9066L60.9509 20.7479Z" fill="#00285E"/>
</svg>
