<?xml version="1.0" encoding="UTF-8" standalone="no"?>
<svg width="1123px" height="182px" viewBox="0 0 1123 182" version="1.1" xmlns="http://www.w3.org/2000/svg" xmlns:xlink="http://www.w3.org/1999/xlink" xmlns:sketch="http://www.bohemiancoding.com/sketch/ns">
    <!-- Generator: Sketch 3.4.2 (15857) - http://www.bohemiancoding.com/sketch -->
    <title>UNH_Secondary_Horiz_Outline_RGB</title>
    <desc>Created with Sketch.</desc>
    <defs>
        <path id="path-1" d="M0.101475904,0 L1122.381,0 L1122.381,181.898889 L0.101475904,181.898889"></path>
    </defs>
    <g id="Page-1" stroke="none" stroke-width="1" fill="none" fill-rule="evenodd" sketch:type="MSPage">
        <g id="UNH_Secondary_Horiz_Outline_RGB" sketch:type="MSLayerGroup">
            <g id="Group-3">
                <mask id="mask-2" sketch:name="Clip 2" fill="white">
                    <use xlink:href="#path-1"></use>
                </mask>
                <g id="Clip-2"></g>
                <path d="M146.521057,0 L-4.55596051e-14,0 L-4.55596051e-14,89.8625 C-0.0202951807,113.392741 6.5249006,132.189296 20.0093569,147.318889 C30.8266883,159.453907 46.7973042,174.318926 74.5374337,181.644426 L75.8769157,182 L77.2197801,181.644426 C104.951453,174.318926 120.925452,159.453907 131.742783,147.318889 C145.222166,132.197722 151.769053,113.401167 151.757214,89.8591296 L151.757214,0 L146.521057,0" id="Fill-1" fill="#FFFFFF" sketch:type="MSShapeGroup" mask="url(#mask-2)"></path>
            </g>
            <path d="M75.8769157,5.21733333 L5.23615663,5.21733333 L5.23615663,89.8625 C5.21755271,112.068185 11.3365497,129.728926 23.9246355,143.855833 C34.3732711,155.576296 49.6369383,169.67287 75.8769157,176.602352 C102.115202,169.67287 117.378869,155.576296 127.827505,143.855833 C140.420664,129.728926 146.532896,112.068185 146.521057,89.8625 L146.521057,5.21733333 L75.8769157,5.21733333" id="Fill-4" fill="#003591" sketch:type="MSShapeGroup"></path>
            <path d="M36.0154895,133.146481 C26.0404081,121.955167 21.394503,108.20237 21.4063419,89.8692407 L21.4063419,21.3344444 L75.8769157,21.3344444 L75.8769157,159.833074 C56.462884,153.759667 44.862497,143.068852 36.0154895,133.146481" id="Fill-5" fill="#FFFFFF" sketch:type="MSShapeGroup"></path>
            <path d="M34.6946114,112.872019 L34.6946114,42.0521111 L50.6314021,42.0521111 L61.4233645,73.4201481 L61.6178599,73.4201481 L61.6178599,42.0521111 L75.8769157,42.0521111 L75.8769157,112.872019 L60.4305919,112.872019 L49.1464714,76.1787963 L48.9469021,76.1787963 L48.9469021,112.872019 L34.6946114,112.872019" id="Fill-6" fill="#003591" sketch:type="MSShapeGroup"></path>
            <path d="M102.079685,42.0521111 L102.079685,69.7852037 L90.3795136,69.7852037 L90.3795136,42.0521111 L75.8769157,42.0521111 L75.8769157,112.872019 L90.631512,112.872019 L90.631512,84.3671111 L102.329992,84.3671111 L102.329992,112.872019 L117.057529,112.872019 L117.057529,42.0521111 L102.079685,42.0521111" id="Fill-7" fill="#FFFFFF" sketch:type="MSShapeGroup"></path>
            <path d="M188.149855,65.8856852 L207.776986,65.8856852 L207.776986,71.7905741 L201.916753,71.7905741 L201.916753,94.1024259 C201.916753,97.4508889 201.849102,100.6005 203.624931,103.488907 C205.341565,106.244185 208.238702,107.4255 211.463944,107.4255 C213.109545,107.4255 214.230854,107.096889 215.744536,106.439667 C218.181649,105.457204 219.566795,102.700241 220.288965,100.339296 C220.884291,98.1721481 220.748989,95.614037 220.748989,93.4468889 L220.748989,71.7905741 L214.953024,71.7905741 L214.953024,65.8856852 L233.724375,65.8856852 L233.724375,71.7905741 L228.983759,71.7905741 L228.983759,92.6599074 C228.983759,96.2021667 229.179946,100.271889 227.733914,103.618667 C226.281117,106.901407 223.845696,109.656685 220.748989,111.427815 C218.2493,112.937741 213.571261,113.659 210.609855,113.659 C207.712718,113.659 203.496395,112.806296 200.991631,111.427815 C198.228104,109.983611 196.185056,107.620981 194.735642,104.931426 C192.824512,101.518926 192.892163,97.6463704 192.892163,93.839537 L192.892163,71.7905741 L188.149855,71.7905741 L188.149855,65.8856852" id="Fill-8" fill="#FFFFFF" sketch:type="MSShapeGroup"></path>
            <path d="M248.533092,83.6711296 C250.768944,79.2087593 254.129488,77.1073333 259.069673,77.1073333 C264.468191,77.1073333 268.554288,80.4541111 269.344108,83.6711296 C269.804133,85.5079815 269.804133,86.8847778 269.804133,88.3947037 L269.804133,107.294056 L274.150684,107.294056 L274.150684,112.870333 L256.962357,112.870333 L256.962357,107.294056 L261.04338,107.294056 L261.04338,91.610037 C261.04338,89.9029444 261.109339,88.5261481 260.583355,86.8207407 C259.989721,84.721 258.212202,83.1453519 255.908699,83.1453519 C249.519099,83.1453519 249.123343,89.115963 249.123343,93.9709815 L249.123343,107.294056 L253.337976,107.294056 L253.337976,112.870333 L235.752202,112.870333 L235.752202,107.294056 L240.365973,107.294056 L240.365973,83.5396852 L235.752202,83.5396852 L235.752202,77.960037 L248.533092,77.960037 L248.533092,83.6711296" id="Fill-9" fill="#FFFFFF" sketch:type="MSShapeGroup"></path>
            <path d="M283.017986,64.6403333 L291.775357,64.6403333 L291.775357,72.6466481 L283.017986,72.6466481 L283.017986,64.6403333 Z M278.339947,112.870333 L278.339947,107.294056 L283.017986,107.294056 L283.017986,83.5396852 L278.339947,83.5396852 L278.339947,77.960037 L291.775357,77.960037 L291.775357,107.294056 L295.859762,107.294056 L295.859762,112.870333 L278.339947,112.870333 L278.339947,112.870333 Z" id="Fill-10" fill="#FFFFFF" sketch:type="MSShapeGroup"></path>
            <path d="M297.507054,77.960037 L313.97152,77.960037 L313.97152,83.5396852 L309.624968,83.5396852 L316.143104,105.78413 L316.210755,105.78413 L323.588053,83.5396852 L319.177233,83.5396852 L319.177233,77.960037 L334.584658,77.960037 L334.584658,83.5396852 L331.885399,83.5396852 L321.546696,112.870333 L310.678627,112.870333 L300.273964,83.5396852 L297.507054,83.5396852 L297.507054,77.960037" id="Fill-11" fill="#FFFFFF" sketch:type="MSShapeGroup"></path>
            <path d="M360.554033,92.1341296 C360.486383,88.197537 358.906741,82.5538519 353.900596,82.5538519 C348.368468,82.5538519 346.59264,87.5403148 346.196884,92.1341296 L360.554033,92.1341296 L360.554033,92.1341296 Z M345.997315,97.188 C345.933047,102.176148 348.042054,107.951278 354.035898,107.951278 C357.524977,107.951278 359.960399,105.588648 360.554033,102.240185 L368.917339,102.240185 C368.325396,109.919574 360.685952,113.659 353.574182,113.659 C351.334947,113.659 348.3042,112.937741 346.261152,112.019315 C343.957649,110.969444 342.443967,109.656685 340.928593,107.620981 C338.161684,104.077037 337.108026,99.4832222 337.108026,95.0882593 C337.108026,85.5079815 342.574194,77.1073333 353.178426,77.1073333 C357.853083,77.1073333 362.267285,78.3526852 365.492527,81.7651852 C368.325396,84.785037 369.181176,89.707463 369.379054,93.6457407 C369.443322,94.6956111 369.578623,95.6780741 369.443322,96.6639074 C369.443322,96.8593889 369.379054,96.9908333 369.379054,97.188 L345.997315,97.188 L345.997315,97.188 Z" id="Fill-12" fill="#FFFFFF" sketch:type="MSShapeGroup"></path>
            <path d="M385.752191,85.376537 C387.137337,79.2727963 391.284319,76.7787222 397.411773,77.3702222 L397.411773,85.9023148 C396.422383,85.6394259 395.368724,85.376537 394.315066,85.376537 C391.088133,85.376537 388.255264,87.3448333 387.137337,90.2972778 C386.279866,92.6599074 386.279866,95.8769259 386.279866,98.3019074 L386.279866,107.294056 L391.879645,107.294056 L391.879645,112.870333 L372.912107,112.870333 L372.912107,107.294056 L377.519113,107.294056 L377.519113,83.5396852 L372.912107,83.5396852 L372.912107,77.960037 L385.752191,77.960037 L385.752191,85.376537" id="Fill-13" fill="#FFFFFF" sketch:type="MSShapeGroup"></path>
            <path d="M421.519065,89.1833704 C421.123309,85.4405741 419.741545,82.3583704 415.526913,82.3583704 C412.694044,82.3583704 410.059053,83.6037222 410.059053,86.8207407 C410.059053,87.9346481 410.387158,88.6575926 411.112711,89.5086111 C411.704654,89.9703519 412.430206,90.1658333 413.088108,90.4944444 C416.844408,91.5443148 423.890218,92.0700926 426.523518,95.3511481 C428.301038,97.5149259 428.962322,99.5506296 428.962322,102.307593 C429.02659,104.339926 428.104851,107.489537 426.787355,109.328074 C425.206023,111.493537 421.387146,113.659 416.44527,113.659 C413.155759,113.659 409.597337,112.150759 407.819818,109.328074 L407.819818,112.870333 L401.497869,112.870333 L401.497869,100.731944 L408.347492,100.731944 C408.609639,105.06287 410.522459,108.081037 415.195425,108.081037 C417.634229,108.081037 420.133919,106.37563 420.133919,103.750111 C420.133919,102.439037 419.741545,100.863389 418.42405,100.207852 C414.473255,98.3019074 409.663297,98.7636481 405.908688,96.2695741 C402.683446,94.0383889 401.430218,91.0202222 401.430218,87.1476667 C401.102113,84.2592593 402.815364,82.1595185 403.737104,80.8467593 C405.054599,79.0099074 409.401151,77.1073333 413.483864,77.1073333 C416.51292,77.1073333 419.937732,78.4200926 421.782902,80.8467593 L421.782902,77.960037 L427.972932,77.960037 L427.972932,89.1833704 L421.519065,89.1833704" id="Fill-14" fill="#FFFFFF" sketch:type="MSShapeGroup"></path>
            <path d="M438.085006,64.6403333 L446.842377,64.6403333 L446.842377,72.6466481 L438.085006,72.6466481 L438.085006,64.6403333 Z M433.406967,112.870333 L433.406967,107.294056 L438.085006,107.294056 L438.085006,83.5396852 L433.406967,83.5396852 L433.406967,77.960037 L446.842377,77.960037 L446.842377,107.294056 L450.92509,107.294056 L450.92509,112.870333 L433.406967,112.870333 L433.406967,112.870333 Z" id="Fill-15" fill="#FFFFFF" sketch:type="MSShapeGroup"></path>
            <path d="M476.752399,103.684389 C476.752399,107.819833 475.434904,111.624981 471.088352,113.001778 C470.364491,113.264667 468.189524,113.659 467.467354,113.659 C465.886021,113.659 464.960899,113.396111 463.448908,113.001778 C460.418161,112.083352 458.774252,109.983611 458.111276,107.032852 C457.784861,105.588648 457.84913,102.503074 457.84913,100.927426 L457.84913,83.5396852 L452.646798,83.5396852 L452.646798,77.960037 L457.84913,77.960037 L457.84913,71.9894259 L466.609883,69.0352963 L466.609883,77.960037 L475.370636,77.960037 L475.370636,83.5396852 L466.609883,83.5396852 L466.609883,105.389796 C466.609883,106.045333 467.003947,107.358093 467.663541,107.620981 C471.681986,109.262352 471.418149,103.684389 471.350498,101.321759 L476.752399,101.321759 L476.752399,103.684389" id="Fill-16" fill="#FFFFFF" sketch:type="MSShapeGroup"></path>
            <path d="M479.615711,77.960037 L496.408282,77.960037 L496.408282,83.5396852 L491.862161,83.5396852 L498.583248,101.977296 L498.911354,102.831685 L505.629059,83.5396852 L501.282508,83.5396852 L501.282508,77.960037 L516.825233,77.960037 L516.825233,83.5396852 L514.058324,83.5396852 L501.544654,115.037481 C499.437337,120.482315 497.394289,124.356556 490.808503,124.356556 C489.032675,124.356556 487.255155,124.356556 485.540212,124.026259 L485.540212,117.989926 C486.729172,118.057333 487.911366,118.187093 489.098634,118.187093 C492.2613,118.187093 492.915819,117.137222 494.037128,114.445981 L494.497152,113.332074 L482.446889,83.5396852 L479.615711,83.5396852 L479.615711,77.960037" id="Fill-17" fill="#FFFFFF" sketch:type="MSShapeGroup"></path>
            <path d="M543.043224,95.3511481 C543.043224,98.2378704 543.307062,100.863389 544.690517,103.488907 C545.940361,105.981296 548.182979,107.88387 551.144384,107.88387 C554.30705,107.88387 556.478634,105.652685 557.665902,102.96313 C558.653601,100.664537 558.915747,97.6463704 558.915747,95.2197037 C558.915747,92.3329815 558.653601,89.8389074 557.336105,87.2133889 C556.086261,84.785037 553.978944,82.882463 551.012465,82.882463 C544.690517,82.882463 543.043224,90.4944444 543.043224,95.3511481 L543.043224,95.3511481 Z M537.908544,107.88387 C535.011407,104.275889 533.890098,99.6820741 533.890098,95.1522963 C533.890098,90.2332407 535.075675,85.7708704 538.500486,82.0954815 C541.597193,78.8144259 546.271849,77.1073333 550.750319,77.1073333 C562.010762,77.1073333 568.068873,84.9164815 568.068873,95.4825926 C568.068873,105.588648 561.814575,113.659 551.012465,113.659 C546.271849,113.659 540.87164,111.559259 537.908544,107.88387 L537.908544,107.88387 Z" id="Fill-18" fill="#FFFFFF" sketch:type="MSShapeGroup"></path>
            <path d="M570.783354,83.5396852 L570.783354,77.960037 L575.923108,77.960037 L575.923108,74.9418704 C575.923108,71.726537 576.579319,68.314037 579.476456,66.4771852 C582.311017,64.5729259 585.008584,63.9157037 588.433396,63.9157037 C590.08238,63.9157037 591.729672,64.310037 593.375273,64.7717778 L593.375273,70.6766667 C592.189696,70.4795 591.068387,70.2840185 589.886193,70.2840185 C588.105291,70.2840185 586.657568,70.6766667 585.407723,72.053463 C584.616211,73.1033333 584.680479,75.5333704 584.680479,76.6472778 L584.680479,77.960037 L590.676014,77.960037 L590.676014,83.5396852 L584.680479,83.5396852 L584.680479,107.294056 L590.476444,107.294056 L590.476444,112.870333 L571.180801,112.870333 L571.180801,107.294056 L575.923108,107.294056 L575.923108,83.5396852 L570.783354,83.5396852" id="Fill-19" fill="#FFFFFF" sketch:type="MSShapeGroup"></path>
            <path d="M611.821901,112.870333 L611.821901,106.965444 L617.289761,106.965444 L617.289761,71.7905741 L611.821901,71.7905741 L611.821901,65.8856852 L629.340024,65.8856852 L646.858148,102.831685 L646.922416,102.831685 L646.922416,71.7905741 L641.390288,71.7905741 L641.390288,65.8856852 L659.965452,65.8856852 L659.965452,71.7905741 L654.825697,71.7905741 L654.825697,112.870333 L643.169498,112.870333 L625.25731,74.9418704 L625.193042,74.9418704 L625.193042,106.965444 L630.393682,106.965444 L630.393682,112.870333 L611.821901,112.870333" id="Fill-20" fill="#FFFFFF" sketch:type="MSShapeGroup"></path>
            <path d="M685.525541,92.1341296 C685.461273,88.197537 683.87994,82.5538519 678.875486,82.5538519 C673.343358,82.5538519 671.562456,87.5403148 671.171774,92.1341296 L685.525541,92.1341296 L685.525541,92.1341296 Z M670.972205,97.188 C670.907937,102.176148 673.015253,107.951278 679.007405,107.951278 C682.498176,107.951278 684.933598,105.588648 685.525541,102.240185 L693.890538,102.240185 C693.300286,109.919574 685.660842,113.659 678.547381,113.659 C676.304764,113.659 673.27909,112.937741 671.236042,112.019315 C668.929157,110.969444 667.415474,109.656685 665.901792,107.620981 C663.133191,104.077037 662.079533,99.4832222 662.079533,95.0882593 C662.079533,85.5079815 667.547393,77.1073333 678.149934,77.1073333 C682.826282,77.1073333 687.240483,78.3526852 690.465726,81.7651852 C693.300286,84.785037 694.154375,89.707463 694.353944,93.6457407 C694.418212,94.6956111 694.550131,95.6780741 694.418212,96.6639074 C694.418212,96.8593889 694.353944,96.9908333 694.353944,97.188 L670.972205,97.188 L670.972205,97.188 Z" id="Fill-21" fill="#FFFFFF" sketch:type="MSShapeGroup"></path>
            <path d="M713.260596,77.960037 L713.260596,83.5396852 L708.58594,83.5396852 L713.590393,106.112741 L713.658044,106.112741 L721.097919,77.960037 L731.76811,77.960037 L738.286245,106.112741 L738.353896,106.112741 L744.28178,83.5396852 L739.80331,83.5396852 L739.80331,77.960037 L755.346036,77.960037 L755.346036,83.5396852 L752.119102,83.5396852 L743.689837,112.870333 L732.625581,112.870333 L726.303633,86.6892963 L719.122521,112.870333 L708.058265,112.870333 L699.629,83.5396852 L696.533985,83.5396852 L696.533985,77.960037 L713.260596,77.960037" id="Fill-22" fill="#FFFFFF" sketch:type="MSShapeGroup"></path>
            <path d="M772.351706,112.870333 L772.351706,106.965444 L777.753607,106.965444 L777.753607,71.7905741 L772.351706,71.7905741 L772.351706,65.8856852 L792.504821,65.8856852 L792.504821,71.7905741 L786.776506,71.7905741 L786.776506,86.0961111 L805.87258,86.0961111 L805.87258,71.7905741 L800.144265,71.7905741 L800.144265,65.8856852 L820.361648,65.8856852 L820.361648,71.7905741 L814.89717,71.7905741 L814.89717,106.965444 L820.361648,106.965444 L820.361648,112.870333 L800.144265,112.870333 L800.144265,106.965444 L805.87258,106.965444 L805.87258,92.0026852 L786.776506,92.0026852 L786.776506,106.965444 L792.504821,106.965444 L792.504821,112.870333 L772.351706,112.870333" id="Fill-23" fill="#FFFFFF" sketch:type="MSShapeGroup"></path>
            <path d="M842.043666,96.7279444 C837.565196,96.7279444 833.479099,97.7778148 833.479099,103.094574 C833.479099,105.78413 835.25831,107.951278 838.09287,107.951278 C844.479087,107.951278 845.996152,101.845852 846.190648,96.7279444 L842.043666,96.7279444 L842.043666,96.7279444 Z M846.850241,107.294056 C844.874843,111.689019 840.65852,113.659 835.917904,113.659 C831.043678,113.659 826.30137,110.902037 825.51155,107.294056 C824.785997,104.995463 824.721729,103.814148 824.721729,102.764278 C824.721729,99.8135185 825.907306,96.8593889 828.146541,94.8910926 C829.858101,93.3154444 833.810587,91.9386481 836.11409,91.8712407 C837.761383,91.8072037 839.537211,91.5443148 841.186194,91.5443148 C842.765836,91.5443148 844.347169,91.7397963 845.928502,91.8072037 C846.386834,87.6077222 845.796583,82.3583704 840.328723,82.3583704 C836.511538,82.3583704 834.668059,84.9822037 834.732327,88.6575926 L826.039224,88.6575926 C826.237102,80.1271852 832.625011,77.1073333 840.328723,77.1073333 C845.796583,77.1073333 850.932955,78.551537 853.304108,83.9323333 C853.831783,85.1136481 853.962011,85.8349074 854.16158,87.2133889 C854.357767,88.7216296 854.425417,90.1658333 854.425417,91.6757593 L854.425417,107.358093 L858.968155,107.358093 L858.968155,112.870333 L846.850241,112.870333 L846.850241,107.294056 L846.850241,107.294056 Z" id="Fill-24" fill="#FFFFFF" sketch:type="MSShapeGroup"></path>
            <path d="M875.703223,83.6711296 C877.942458,79.2087593 881.629416,77.1073333 886.699828,77.1073333 C891.376176,77.1073333 894.800988,78.878463 896.446589,83.6711296 C898.357718,79.2087593 902.114018,77.1073333 906.656756,77.1073333 C911.661209,77.1073333 915.21794,79.4042407 916.9295,83.6711296 C917.78528,85.8349074 917.521443,87.4088704 917.521443,89.115963 L917.521443,107.294056 L921.803726,107.294056 L921.803726,112.870333 L904.613708,112.870333 L904.613708,107.294056 L908.764072,107.294056 L908.764072,91.7397963 C908.764072,88.197537 908.300666,83.5396852 903.56005,83.5396852 C900.992709,83.5396852 899.147539,84.721 898.027922,87.0819444 C896.908304,89.3788519 896.908304,91.3471481 896.908304,93.839537 L896.908304,107.294056 L900.992709,107.294056 L900.992709,112.870333 L884.132488,112.870333 L884.132488,107.294056 L888.150934,107.294056 L888.150934,91.1516667 C888.150934,89.1833704 888.150934,87.6717593 887.293462,85.8349074 C886.63556,84.4581111 884.922309,83.5396852 883.408627,83.5396852 C879.721669,83.5396852 877.742889,85.7708704 876.756881,89.0519259 C876.296857,90.7573333 876.296857,92.3970185 876.296857,94.1698333 L876.296857,107.294056 L880.511489,107.294056 L880.511489,112.870333 L862.925715,112.870333 L862.925715,107.294056 L867.536104,107.294056 L867.536104,83.5396852 L862.925715,83.5396852 L862.925715,77.960037 L875.703223,77.960037 L875.703223,83.6711296" id="Fill-25" fill="#FFFFFF" sketch:type="MSShapeGroup"></path>
            <path d="M938.489747,87.0162222 C936.972682,89.9029444 936.382431,92.7256296 936.382431,95.5466296 C936.382431,100.469056 938.290178,107.752426 944.48359,107.752426 C950.80723,107.752426 952.319221,100.863389 952.319221,95.8769259 C952.319221,90.8887778 951.333214,82.8150556 944.747428,82.8150556 C941.914559,82.8150556 939.543405,84.785037 938.489747,87.0162222 L938.489747,87.0162222 Z M936.382431,83.8649259 C938.816161,79.1413519 942.572461,77.1073333 946.719443,77.1073333 C952.055384,77.1073333 955.612114,79.2727963 958.773089,83.8649259 C960.154852,85.9023148 961.343812,90.2332407 961.343812,94.9568148 C961.343812,100.207852 960.817828,103.488907 958.047536,108.015315 C955.811684,111.689019 951.069377,113.659 946.854744,113.659 C942.968217,113.659 939.543405,111.951907 936.908414,107.620981 L936.908414,117.925889 L941.850291,117.925889 L941.850291,123.502167 L923.537273,123.502167 L923.537273,117.925889 L928.151044,117.925889 L928.151044,83.5396852 L923.537273,83.5396852 L923.537273,77.960037 L936.382431,77.960037 L936.382431,83.8649259 L936.382431,83.8649259 Z" id="Fill-26" fill="#FFFFFF" sketch:type="MSShapeGroup"></path>
            <path d="M986.793968,89.1833704 C986.39483,85.4405741 985.013066,82.3583704 980.798434,82.3583704 C977.965565,82.3583704 975.330574,83.6037222 975.330574,86.8207407 C975.330574,87.9346481 975.662062,88.6575926 976.384232,89.5086111 C976.977866,89.9703519 977.701727,90.1658333 978.363012,90.4944444 C982.115929,91.5443148 989.163431,92.0700926 991.798422,95.3511481 C993.575941,97.5149259 994.233843,99.5506296 994.233843,102.307593 C994.298111,104.339926 993.379755,107.489537 992.062259,109.328074 C990.480926,111.493537 986.658667,113.659 981.720173,113.659 C978.42728,113.659 974.87055,112.150759 973.094721,109.328074 L973.094721,112.870333 L966.772773,112.870333 L966.772773,100.731944 L973.620705,100.731944 C973.884542,105.06287 975.79398,108.081037 980.470328,108.081037 C982.90575,108.081037 985.408822,106.37563 985.408822,103.750111 C985.408822,102.439037 985.013066,100.863389 983.695571,100.207852 C979.744776,98.3019074 974.9382,98.7636481 971.183592,96.2695741 C967.954967,94.0383889 966.705122,91.0202222 966.705122,87.1476667 C966.373634,84.2592593 968.088577,82.1595185 969.008625,80.8467593 C970.324429,79.0099074 974.674363,77.1073333 978.755386,77.1073333 C981.787824,77.1073333 985.212636,78.4200926 987.056114,80.8467593 L987.056114,77.960037 L993.244453,77.960037 L993.244453,89.1833704 L986.793968,89.1833704" id="Fill-27" fill="#FFFFFF" sketch:type="MSShapeGroup"></path>
            <path d="M998.311483,112.870333 L998.311483,107.294056 L1002.78995,107.294056 L1002.78995,70.6766667 L998.311483,70.6766667 L998.311483,65.0970185 L1011.55071,65.0970185 L1011.55071,82.4898148 C1013.98613,78.6155741 1016.94753,77.1073333 1021.5613,77.1073333 C1024.45844,77.1073333 1027.94752,77.960037 1029.92292,80.1912222 C1032.03023,82.5538519 1032.36172,85.4405741 1032.36172,88.4587407 L1032.36172,107.294056 L1036.77254,107.294056 L1036.77254,112.870333 L1019.31869,112.870333 L1019.31869,107.294056 L1023.60097,107.294056 L1023.60097,91.610037 C1023.60097,90.2972778 1023.46905,88.9204815 1023.26948,87.6077222 C1023.0733,85.1136481 1021.03363,83.0779444 1018.4646,83.0779444 C1015.30193,83.0779444 1013.52272,84.721 1012.46906,87.5403148 C1011.48306,89.9703519 1011.55071,92.3970185 1011.55071,94.9568148 L1011.55071,107.294056 L1015.82961,107.294056 L1015.82961,112.870333 L998.311483,112.870333" id="Fill-28" fill="#FFFFFF" sketch:type="MSShapeGroup"></path>
            <path d="M1045.60771,64.6403333 L1054.36508,64.6403333 L1054.36508,72.6466481 L1045.60771,72.6466481 L1045.60771,64.6403333 Z M1040.92967,112.870333 L1040.92967,107.294056 L1045.60771,107.294056 L1045.60771,83.5396852 L1040.92967,83.5396852 L1040.92967,77.960037 L1054.36508,77.960037 L1054.36508,107.294056 L1058.4478,107.294056 L1058.4478,112.870333 L1040.92967,112.870333 L1040.92967,112.870333 Z" id="Fill-29" fill="#FFFFFF" sketch:type="MSShapeGroup"></path>
            <path d="M1075.467,85.376537 C1076.85214,79.2727963 1080.99912,76.7787222 1087.12658,77.3702222 L1087.12658,85.9023148 C1086.13888,85.6394259 1085.08522,85.376537 1084.03156,85.376537 C1080.80294,85.376537 1077.97345,87.3448333 1076.85214,90.2972778 C1075.99467,92.6599074 1075.99467,95.8769259 1075.99467,98.3019074 L1075.99467,107.294056 L1081.59445,107.294056 L1081.59445,112.870333 L1062.62691,112.870333 L1062.62691,107.294056 L1067.23561,107.294056 L1067.23561,83.5396852 L1062.62691,83.5396852 L1062.62691,77.960037 L1075.467,77.960037 L1075.467,85.376537" id="Fill-30" fill="#FFFFFF" sketch:type="MSShapeGroup"></path>
            <path d="M1113.43251,92.1341296 C1113.36825,88.197537 1111.7886,82.5538519 1106.78246,82.5538519 C1101.25033,82.5538519 1099.47112,87.5403148 1099.07875,92.1341296 L1113.43251,92.1341296 L1113.43251,92.1341296 Z M1098.87918,97.188 C1098.81491,102.176148 1100.92223,107.951278 1106.91438,107.951278 C1110.40684,107.951278 1112.84226,105.588648 1113.43251,102.240185 L1121.7992,102.240185 C1121.20726,109.919574 1113.56781,113.659 1106.45435,113.659 C1104.21174,113.659 1101.18606,112.937741 1099.14302,112.019315 C1096.83613,110.969444 1095.32245,109.656685 1093.81046,107.620981 C1091.04016,104.077037 1089.98651,99.4832222 1089.98651,95.0882593 C1089.98651,85.5079815 1095.45437,77.1073333 1106.05691,77.1073333 C1110.73325,77.1073333 1115.14746,78.3526852 1118.37439,81.7651852 C1121.20726,84.785037 1122.06135,89.707463 1122.26092,93.6457407 C1122.32519,94.6956111 1122.4571,95.6780741 1122.32519,96.6639074 C1122.32519,96.8593889 1122.26092,96.9908333 1122.26092,97.188 L1098.87918,97.188 L1098.87918,97.188 Z" id="Fill-32" fill="#FFFFFF" sketch:type="MSShapeGroup"></path>
        </g>
    </g>
</svg>